<?xml version="1.0" encoding="UTF-8"?><svg id="a" xmlns="http://www.w3.org/2000/svg" viewBox="0 0 133.54 106.72"><path d="M61.12,7h7.45c.35,0,.64-.29,.64-.64s-.29-.64-.64-.64h-7.45c-.35,0-.64,.29-.64,.64s.29,.64,.64,.64Z"/><path d="M57.87,6.36c0,.82-1.22,.82-1.22,0s1.22-.82,1.22,0"/><path d="M63.83,61.94c0,1.11-.9,2.01-2.01,2.01s-2.01-.9-2.01-2.01,.9-2.01,2.01-2.01,2.01,.9,2.01,2.01"/><path d="M133.14,95.69l-9.39-13.33c.85-23.5-8.35-32.97-10.32-34.72l-8.99-14.77c-1.65-2.77-5.62-3.44-8.86-1.51-.78,.47-1.46,1.05-2.01,1.72-1.38-1.7-3.76-2.37-6.13-1.85,.76-2.19,.83-4.12,.2-5.75-1.06-2.76-3.6-3.49-3.84-3.55-1.65-.47-3.1-.18-4.32,.44V5.48c0-3.02-2.46-5.48-5.48-5.48h-24.36c-3.02,0-5.48,2.46-5.48,5.48v14.94c-5.46-.84-8.97,6.94-9.37,7.87-3.89,9.08-6.82,22.87-4.07,31.7,2.57,8.24,.5,12.37,.29,12.76l-1.18,1.54-.77-.44c-.89-.51-2.01-.35-2.72,.4L.6,101.57c-.6,.64-.77,1.58-.42,2.39,.35,.81,1.15,1.34,2.03,1.34H46.36c.74,0,1.43-.37,1.84-.99l7.99-12.02c.26-.39,.38-.86,.36-1.33,4.87-1.75,10.41-5.55,16.54-11.35,7.53,8.64,18.89,16.18,22.44,18.44v6.46c0,1.22,.99,2.21,2.21,2.21s2.21-.99,2.21-2.21v-7.68c0-.77-.4-1.49-1.06-1.89-7.51-4.57-27.26-18.68-28.37-28.87-.2-1.84,.26-3.44,1.36-4.88l4.32,7.32c.41,.7,1.15,1.09,1.91,1.09,.38,0,.77-.1,1.12-.31,1.05-.62,1.4-1.97,.78-3.02l-19.83-33.63c-.14-.24-.11-.54-.06-.75,.16-.64,.68-1.27,1.39-1.7,1.19-.71,2.45-.59,2.82,.02l5.36,8.57c.12,.41,.3,.8,.52,1.17l12.51,19.66s.02,.02,.03,.04c.09,.13,.19,.25,.3,.36,.04,.04,.08,.07,.12,.11,.09,.08,.18,.14,.29,.2,.05,.03,.09,.06,.15,.08,.12,.06,.23,.1,.36,.14,.03,.01,.07,.03,.1,.03,.16,.04,.32,.06,.48,.06,.01,0,.02,0,.04,0,.03,0,.06,0,.08,0,.15,0,.29-.03,.44-.06,.05-.01,.1-.02,.15-.04,.18-.06,.34-.13,.51-.23h.01c.06-.05,.12-.1,.18-.15,.05-.04,.12-.08,.17-.13,.05-.06,.1-.12,.15-.18,.04-.05,.09-.1,.13-.15,.04-.06,.08-.14,.11-.2,.03-.05,.07-.11,.09-.17,.03-.07,.05-.15,.07-.22,.02-.06,.04-.12,.06-.18,.02-.08,.02-.16,.03-.23,0-.06,.02-.12,.02-.18,0-.08,0-.17-.01-.25,0-.06,0-.12-.01-.18-.01-.09-.04-.17-.07-.25-.02-.05-.03-.11-.05-.17-.03-.08-.07-.15-.11-.23-.03-.06-.05-.11-.08-.17h0v-.02l-12.58-20.11c.02-.18,.06-.35,.11-.47,.22-.57,.7-1.11,1.32-1.48,.63-.38,1.33-.55,1.94-.47,.24,.03,.67,.13,.9,.5l12.51,19.66c.16,.25,.36,.45,.58,.61l.2,.33c.42,.68,1.15,1.06,1.89,1.06,.39,0,.79-.11,1.15-.32,1.04-.63,1.37-1.99,.74-3.03l-9.18-15.08c-.14-.24-.11-.54-.05-.75,.16-.64,.68-1.28,1.39-1.7,1.18-.71,2.45-.59,2.8,0l9.19,15.09c.12,.2,.28,.37,.45,.51l2.09,3.44c.63,1.04,2,1.37,3.04,.74,1.04-.64,1.37-1.99,.74-3.04l-9.18-15.08c-.19-.32-.07-.74,.01-.97,.21-.57,.7-1.11,1.32-1.48,1.18-.71,2.45-.59,2.8,0l9.19,15.09c.14,.23,.32,.43,.54,.6,.1,.08,10,8.03,8.93,32.08-.02,.49,.12,.97,.4,1.37l9.82,13.95c.43,.61,1.11,.94,1.81,.94,.44,0,.88-.13,1.27-.4,1-.7,1.24-2.08,.54-3.08h0ZM80.02,27.8s1.2-2.01,2.57-1.62c.07,.02,.7,.24,.94,.93,.2,.56,.4,2.19-1.7,5.62-.56-.87-1.37-1.54-2.34-1.97v-2.34c.21-.17,.39-.38,.53-.62ZM49.65,4.42h24.36c.59,0,1.06,.47,1.06,1.06v2.41h-26.48v-2.41c0-.59,.48-1.06,1.06-1.06h0Zm16.42,60.57h-16.42c-.59,0-1.06-.47-1.06-1.06v-4.97h19.44c-1.27,1.82-1.92,3.83-1.96,6.03h0Zm-20.89,35.89H7.33l21.03-22.32,.93,.54,3.19,1.85,18.73,10.85-6.03,9.07Zm7.4-13.39l-18.9-10.95,.9-1.18s.06-.08,.09-.12c.38-.57,3.59-5.87,.27-16.55-2.31-7.42,.22-20.03,3.91-28.65,1.01-2.33,3.21-5.42,4.68-5.24,.31,.38,1.72,2.75-1.08,11.49-.12,.37-.14,.76-.06,1.14l1.61,7.55c.04,.16,.09,.31,.15,.45v18.5c0,3.02,2.46,5.48,5.48,5.48h17.13c.73,2.23,1.97,4.49,3.56,6.72-6.92,6.59-13.03,10.51-17.76,11.35h0Zm20.47-56.12c-.69,.42-1.3,.92-1.82,1.5l-3.11-4.98c-1.65-2.76-5.63-3.44-8.86-1.51-1.72,1.03-2.97,2.65-3.41,4.42-.36,1.45-.16,2.9,.55,4.08l11.59,19.65h-19.39V12.32h26.48V30.51c-.69,.19-1.37,.47-2.01,.85h0Z"/></svg>