<?xml version="1.0" encoding="UTF-8"?><svg id="a" xmlns="http://www.w3.org/2000/svg" viewBox="0 0 142 142"><path d="M142,71c0-10.11-7.31-18.51-16.92-20.28V20.66c0-11.39-9.27-20.66-20.66-20.66H37.57c-11.39,0-20.66,9.27-20.66,20.64l-.12,30.09C7.25,52.55,0,60.93,0,71c0,6.55,3.19,12.71,8.46,16.58l-.06,50.54c0,1.03,.41,2.01,1.13,2.74,.73,.73,1.71,1.13,2.74,1.13h117.47c1.03,0,2.01-.41,2.74-1.13,.73-.73,1.13-1.71,1.13-2.74l-.06-50.46c5.26-3.87,8.45-10.06,8.45-16.66h0ZM37.57,7.75H104.43c7.12,0,12.91,5.79,12.91,12.91v30.09c-8.58,1.69-15.18,8.73-16.37,17.47-1.49-.65-3.13-1.03-4.86-1.03H45.76c-1.68,0-3.28,.34-4.73,.96-1.22-8.75-7.87-15.77-16.48-17.41l.12-30.08c0-7.12,5.79-12.91,12.91-12.91h0Zm3.73,83.91h59.38v42.6H41.31v-42.6Zm0-12.26c0-2.45,2-4.45,4.45-4.45h50.35c2.45,0,4.45,2,4.45,4.45v4.52H41.31v-4.52Zm-27.04,2.75c-4.08-2.35-6.52-6.51-6.52-11.14,0-7.12,5.79-12.91,12.91-12.91s12.84,5.72,12.91,12.78c0,.06,0,.13,0,.19v63.2H16.14l.06-48.76c0-1.38-.74-2.67-1.94-3.36h0Zm113.48,.07c-1.21,.69-1.95,1.97-1.95,3.36l.06,48.68h-17.43v-63.25c0-7.12,5.79-12.91,12.91-12.91s12.91,5.79,12.91,12.91c0,4.62-2.49,8.91-6.5,11.21h0Z"/></svg>