<?xml version="1.0" encoding="UTF-8"?><svg id="a" xmlns="http://www.w3.org/2000/svg" viewBox="0 0 142.53 102.63"><path d="M71.27,0c-13.64,.02-26.72,5.44-36.36,15.09-9.64,9.64-15.07,22.72-15.08,36.36,2.83,68.25,100.07,68.23,102.89,0h0c-.02-13.64-5.44-26.72-15.08-36.36C97.98,5.44,84.91,.02,71.27,0h0Zm46.15,49.55l-8.77-.59-5.03-12.08,6.4-10.61c4.53,6.95,7.09,14.99,7.41,23.28h0ZM91.75,10.03l-11.83,9.5-9.61-8.21c-.69-.59-1.63-.77-2.5-.49l-13.71,4.5-4.23-4.85h0c13.09-6.82,28.65-6.99,41.88-.45h0Zm-46.42,3.14l5.99,6.86c.68,.79,1.77,1.09,2.76,.76l13.96-4.58,10.13,8.66c.95,.81,2.34,.83,3.31,.05l15.12-12.13h0c3.77,2.48,7.17,5.5,10.07,8.95l-8.19,13.58c-.43,.71-.49,1.58-.17,2.34l6.15,14.78h0c.38,.91,1.24,1.53,2.22,1.59l10.65,.71h0c-.43,6.2-2.12,12.25-4.96,17.77l-8.81-7.86c-.74-.64-1.78-.82-2.69-.45-.91,.37-1.54,1.21-1.63,2.19l-.86,11.03-13.34-5.15c-1.29-.49-2.74,.1-3.31,1.36l-6.53,14.56-11.01-6.35c-.6-.34-1.31-.44-1.98-.26-.67,.18-1.23,.62-1.58,1.22l-6.57,11.55h0c-5.13-2.07-9.85-5.05-13.92-8.78,.08-.22,.12-.44,.13-.67v-21.42c0-.53-.16-1.05-.47-1.49l-6.91-9.91,3.41-15.31h0c.23-1.02-.18-2.07-1.02-2.68l-5.17-3.69c3.55-6.92,8.77-12.84,15.19-17.22h0ZM25.02,51.44c.01-5.53,1.02-11.02,2.98-16.19l2.89,2.06-3.29,14.74h0c-.16,.71-.01,1.45,.4,2.05l7.09,10.17v15.9c-6.52-8.16-10.08-18.29-10.08-28.74h0Zm46.25,46.25c-4.11-.01-8.2-.58-12.17-1.68l4.77-8.38,11.24,6.49h0c.64,.36,1.4,.44,2.09,.21,.7-.23,1.27-.73,1.57-1.4l6.71-14.93,14.3,5.52c.77,.3,1.63,.21,2.32-.23,.69-.44,1.14-1.18,1.21-2l.73-9.28,5.69,5.08h0c-8.57,12.86-23,20.59-38.45,20.59h0Zm-21.02-25.14h0c.34,.86,1.09,1.48,2,1.64,2.95,.42,5.92,.63,8.9,.62,6.87,0,16.01-1.14,21.13-6.5,8.38-8.77,11.95-36.16,12.1-37.33h0c.1-.83-.21-1.67-.83-2.23-.62-.57-1.48-.8-2.3-.63-1.21,.26-29.8,6.62-38.14,15.34-8.83,9.44-3.22,28.07-2.85,29.08h0Zm6.61-25.49c5.24-5.48,22.31-10.62,31.82-12.99-1.48,9.11-4.99,25.26-10.15,30.66-4.31,4.5-13.73,5.13-20.29,4.82l13.28-13.9,8.19,.03h0c1.41-.03,2.54-1.18,2.55-2.59,0-1.41-1.13-2.57-2.54-2.6h-3.26l4.5-4.72c.48-.5,.74-1.16,.72-1.85-.01-.69-.3-1.34-.8-1.82s-1.17-.73-1.86-.72c-.69,.02-1.34,.31-1.82,.81l-12.95,13.55,.47-4.88h0c.11-1.41-.93-2.65-2.34-2.78-1.41-.14-2.67,.88-2.83,2.28l-1.11,11.45-4.36,4.56c-1.07-5.99-1.51-14.83,2.76-19.31h0Zm66.91,50.01c-1.02,.98-2.64,.96-3.63-.04-1-1-1.02-2.61-.04-3.63,21.18-20.36,23.15-56.28,4.53-78.84l.11,8.4c0,1.42-1.14,2.57-2.56,2.59s-2.59-1.11-2.63-2.52l-.21-15.34c0-1.05,.63-1.99,1.6-2.4,.97-.41,2.08-.2,2.83,.53,25.03,24.02,25.03,67.24,0,91.25h0ZM23,79.86l.21,15.34c0,1.05-.63,1.99-1.6,2.4-.97,.41-2.08,.2-2.84-.53-25.03-24.02-25.03-67.23,0-91.26h0c1.02-.98,2.63-.96,3.63,.04,1,1,1.02,2.61,.04,3.63C1.27,29.85-.71,65.77,17.92,88.34l-.11-8.4h0c0-1.42,1.15-2.57,2.56-2.58s2.59,1.1,2.63,2.51h0Z"/></svg>