<?xml version="1.0" encoding="UTF-8"?><svg id="a" xmlns="http://www.w3.org/2000/svg" viewBox="0 0 128 96.95"><path d="M18.6,47.91c-.81,0-1.47-.66-1.47-1.47V20.05c0-.81,.66-1.47,1.47-1.47s1.47,.66,1.47,1.47v26.4c0,.81-.66,1.47-1.47,1.47Z"/><path d="M29.95,47.91c-.81,0-1.47-.66-1.47-1.47V20.05c0-.81,.66-1.47,1.47-1.47s1.47,.66,1.47,1.47v26.4c0,.81-.66,1.47-1.47,1.47Z"/><path d="M41.3,47.91c-.81,0-1.47-.66-1.47-1.47V20.05c0-.81,.66-1.47,1.47-1.47s1.47,.66,1.47,1.47v26.4c0,.81-.66,1.47-1.47,1.47Z"/><path d="M52.64,47.91c-.81,0-1.47-.66-1.47-1.47V20.05c0-.81,.66-1.47,1.47-1.47s1.47,.66,1.47,1.47v26.4c0,.81-.65,1.47-1.47,1.47Z"/><path d="M64,47.91c-.81,0-1.47-.66-1.47-1.47V20.05c0-.81,.66-1.47,1.47-1.47s1.47,.66,1.47,1.47v26.4c0,.81-.66,1.47-1.47,1.47Z"/><path d="M75.34,47.91c-.81,0-1.47-.66-1.47-1.47V20.05c0-.81,.66-1.47,1.47-1.47s1.47,.66,1.47,1.47v26.4c0,.81-.65,1.47-1.47,1.47Z"/><path d="M86.7,47.91c-.81,0-1.47-.66-1.47-1.47V20.05c0-.81,.66-1.47,1.47-1.47s1.47,.66,1.47,1.47v26.4c0,.81-.66,1.47-1.47,1.47Z"/><path d="M98.05,47.91c-.81,0-1.47-.66-1.47-1.47V20.05c0-.81,.66-1.47,1.47-1.47s1.47,.66,1.47,1.47v26.4c0,.81-.65,1.47-1.47,1.47Z"/><path d="M109.4,47.91c-.81,0-1.47-.66-1.47-1.47V20.05c0-.81,.66-1.47,1.47-1.47s1.47,.66,1.47,1.47v26.4c0,.81-.66,1.47-1.47,1.47Z"/><path d="M18.6,78.38c-.81,0-1.47-.66-1.47-1.47v-27.32c0-.81,.66-1.47,1.47-1.47s1.47,.66,1.47,1.47v27.32c0,.82-.66,1.46-1.47,1.46h0Z"/><path d="M29.95,78.38c-.81,0-1.47-.66-1.47-1.47v-27.32c0-.81,.66-1.47,1.47-1.47s1.47,.66,1.47,1.47v27.32c0,.82-.66,1.46-1.47,1.46h0Z"/><path d="M41.3,78.38c-.81,0-1.47-.66-1.47-1.47v-27.32c0-.81,.66-1.47,1.47-1.47s1.47,.66,1.47,1.47v27.32c0,.82-.66,1.46-1.47,1.46h0Z"/><path d="M52.64,78.38c-.81,0-1.47-.66-1.47-1.47v-27.32c0-.81,.66-1.47,1.47-1.47s1.47,.66,1.47,1.47v27.32c0,.82-.65,1.46-1.47,1.46h0Z"/><path d="M64,78.38c-.81,0-1.47-.66-1.47-1.47v-27.32c0-.81,.66-1.47,1.47-1.47s1.47,.66,1.47,1.47v27.32c0,.82-.66,1.46-1.47,1.46h0Z"/><path d="M75.34,78.38c-.81,0-1.47-.66-1.47-1.47v-27.32c0-.81,.66-1.47,1.47-1.47s1.47,.66,1.47,1.47v27.32c0,.82-.65,1.46-1.47,1.46h0Z"/><path d="M86.7,78.38c-.81,0-1.47-.66-1.47-1.47v-27.32c0-.81,.66-1.47,1.47-1.47s1.47,.66,1.47,1.47v27.32c0,.82-.66,1.46-1.47,1.46h0Z"/><path d="M98.05,78.38c-.81,0-1.47-.66-1.47-1.47v-27.32c0-.81,.66-1.47,1.47-1.47s1.47,.66,1.47,1.47v27.32c0,.82-.65,1.46-1.47,1.46h0Z"/><path d="M109.4,78.38c-.81,0-1.47-.66-1.47-1.47v-27.32c0-.81,.66-1.47,1.47-1.47s1.47,.66,1.47,1.47v27.32c0,.82-.66,1.46-1.47,1.46h0Z"/><path d="M119.68,49.31H8.32c-.81,0-1.47-.66-1.47-1.47s.66-1.47,1.47-1.47H119.68c.81,0,1.47,.66,1.47,1.47,0,.81-.66,1.47-1.47,1.47h0Z"/><path d="M2.93,21.66c-1.61,0-2.93-1.32-2.93-2.93V2.95C0,1.33,1.32,.01,2.93,.01h15.78c1.61,0,2.93,1.32,2.93,2.93s-1.32,2.93-2.93,2.93H5.86v12.87c0,1.61-1.3,2.92-2.93,2.92h0Z"/><path d="M125.07,21.66c-1.61,0-2.93-1.32-2.93-2.93V5.86h-12.87c-1.61,0-2.93-1.32-2.93-2.93s1.32-2.93,2.93-2.93h15.8c1.61,0,2.93,1.32,2.93,2.93v15.8c0,1.63-1.32,2.93-2.93,2.93h0Z"/><path d="M125.07,96.95h-15.8c-1.61,0-2.93-1.32-2.93-2.93s1.32-2.93,2.93-2.93h12.87v-12.85c0-1.61,1.32-2.93,2.93-2.93s2.93,1.32,2.93,2.93v15.8c0,1.61-1.32,2.92-2.93,2.92h0Z"/><path d="M18.73,96.95H2.93C1.32,96.95,0,95.63,0,94.01v-15.78c0-1.61,1.32-2.93,2.93-2.93s2.93,1.32,2.93,2.93v12.87h12.87c1.61,0,2.93,1.32,2.93,2.93s-1.32,2.92-2.93,2.92h0Z"/></svg>