<?xml version="1.0" encoding="UTF-8"?>
<svg width="700pt" height="700pt" version="1.1" viewBox="0 0 700 700" xmlns="http://www.w3.org/2000/svg" xmlns:xlink="http://www.w3.org/1999/xlink">
 <defs>
  <symbol id="x" overflow="visible">
   <path d="m18.766-1.125c-0.96875 0.5-1.9805 0.875-3.0312 1.125-1.043 0.25781-2.1367 0.39062-3.2812 0.39062-3.3984 0-6.0898-0.94531-8.0781-2.8438-1.9922-1.9062-2.9844-4.4844-2.9844-7.7344 0-3.2578 0.99219-5.8359 2.9844-7.7344 1.9883-1.9062 4.6797-2.8594 8.0781-2.8594 1.1445 0 2.2383 0.13281 3.2812 0.39062 1.0508 0.25 2.0625 0.625 3.0312 1.125v4.2188c-0.98047-0.65625-1.9453-1.1406-2.8906-1.4531-0.94922-0.3125-1.9492-0.46875-3-0.46875-1.875 0-3.3516 0.60547-4.4219 1.8125-1.0742 1.1992-1.6094 2.8555-1.6094 4.9688 0 2.1055 0.53516 3.7617 1.6094 4.9688 1.0703 1.1992 2.5469 1.7969 4.4219 1.7969 1.0508 0 2.0508-0.14844 3-0.45312 0.94531-0.3125 1.9102-0.80078 2.8906-1.4688z"/>
  </symbol>
  <symbol id="b" overflow="visible">
   <path d="m13.734-11.141c-0.4375-0.19531-0.87109-0.34375-1.2969-0.4375-0.41797-0.10156-0.83984-0.15625-1.2656-0.15625-1.2617 0-2.2305 0.40625-2.9062 1.2188-0.67969 0.80469-1.0156 1.9531-1.0156 3.4531v7.0625h-4.8906v-15.312h4.8906v2.5156c0.625-1 1.3438-1.7266 2.1562-2.1875 0.82031-0.46875 1.8008-0.70312 2.9375-0.70312 0.16406 0 0.34375 0.011719 0.53125 0.03125 0.19531 0.011719 0.47656 0.039062 0.84375 0.078125z"/>
  </symbol>
  <symbol id="a" overflow="visible">
   <path d="m17.641-7.7031v1.4062h-11.453c0.125 1.1484 0.53906 2.0078 1.25 2.5781 0.70703 0.57422 1.7031 0.85938 2.9844 0.85938 1.0312 0 2.082-0.14844 3.1562-0.45312 1.082-0.3125 2.1914-0.77344 3.3281-1.3906v3.7656c-1.1562 0.4375-2.3125 0.76562-3.4688 0.98438-1.1562 0.22656-2.3125 0.34375-3.4688 0.34375-2.7734 0-4.9297-0.70312-6.4688-2.1094-1.5312-1.4062-2.2969-3.3789-2.2969-5.9219 0-2.5 0.75391-4.4609 2.2656-5.8906 1.5078-1.4375 3.582-2.1562 6.2188-2.1562 2.4062 0 4.332 0.73047 5.7812 2.1875 1.4453 1.4492 2.1719 3.3828 2.1719 5.7969zm-5.0312-1.625c0-0.92578-0.27344-1.6719-0.8125-2.2344-0.54297-0.57031-1.25-0.85938-2.125-0.85938-0.94922 0-1.7188 0.26562-2.3125 0.79688s-0.96484 1.2969-1.1094 2.2969z"/>
  </symbol>
  <symbol id="g" overflow="visible">
   <path d="m9.2188-6.8906c-1.0234 0-1.793 0.17188-2.3125 0.51562-0.51172 0.34375-0.76562 0.85547-0.76562 1.5312 0 0.625 0.20703 1.1172 0.625 1.4688 0.41406 0.34375 0.98828 0.51562 1.7188 0.51562 0.92578 0 1.7031-0.32812 2.3281-0.98438 0.63281-0.66406 0.95312-1.4922 0.95312-2.4844v-0.5625zm7.4688-1.8438v8.7344h-4.9219v-2.2656c-0.65625 0.92969-1.3984 1.6055-2.2188 2.0312-0.82422 0.41406-1.8242 0.625-3 0.625-1.5859 0-2.8711-0.45703-3.8594-1.375-0.99219-0.92578-1.4844-2.1289-1.4844-3.6094 0-1.7891 0.61328-3.1016 1.8438-3.9375 1.2383-0.84375 3.1797-1.2656 5.8281-1.2656h2.8906v-0.39062c0-0.76953-0.30859-1.332-0.92188-1.6875-0.61719-0.36328-1.5703-0.54688-2.8594-0.54688-1.0547 0-2.0312 0.10547-2.9375 0.3125-0.89844 0.21094-1.7305 0.52344-2.5 0.9375v-3.7344c1.0391-0.25 2.0859-0.44141 3.1406-0.57812 1.0625-0.13281 2.125-0.20312 3.1875-0.20312 2.7578 0 4.75 0.54688 5.9688 1.6406 1.2266 1.0859 1.8438 2.8555 1.8438 5.3125z"/>
  </symbol>
  <symbol id="c" overflow="visible">
   <path d="m7.7031-19.656v4.3438h5.0469v3.5h-5.0469v6.5c0 0.71094 0.14062 1.1875 0.42188 1.4375s0.83594 0.375 1.6719 0.375h2.5156v3.5h-4.1875c-1.9375 0-3.3125-0.39844-4.125-1.2031-0.80469-0.8125-1.2031-2.1797-1.2031-4.1094v-6.5h-2.4219v-3.5h2.4219v-4.3438z"/>
  </symbol>
  <symbol id="f" overflow="visible">
   <path d="m12.766-13.078v-8.2031h4.9219v21.281h-4.9219v-2.2188c-0.66797 0.90625-1.4062 1.5703-2.2188 1.9844s-1.7578 0.625-2.8281 0.625c-1.8867 0-3.4336-0.75-4.6406-2.25-1.2109-1.5-1.8125-3.4258-1.8125-5.7812 0-2.3633 0.60156-4.2969 1.8125-5.7969 1.207-1.5 2.7539-2.25 4.6406-2.25 1.0625 0 2 0.21484 2.8125 0.64062 0.82031 0.42969 1.5664 1.0859 2.2344 1.9688zm-3.2188 9.9219c1.0391 0 1.8359-0.37891 2.3906-1.1406 0.55078-0.76953 0.82812-1.8828 0.82812-3.3438 0-1.457-0.27734-2.5664-0.82812-3.3281-0.55469-0.76953-1.3516-1.1562-2.3906-1.1562-1.043 0-1.8398 0.38672-2.3906 1.1562-0.55469 0.76172-0.82812 1.8711-0.82812 3.3281 0 1.4609 0.27344 2.5742 0.82812 3.3438 0.55078 0.76172 1.3477 1.1406 2.3906 1.1406z"/>
  </symbol>
  <symbol id="k" overflow="visible">
   <path d="m10.5-3.1562c1.0508 0 1.8516-0.37891 2.4062-1.1406 0.55078-0.76953 0.82812-1.8828 0.82812-3.3438 0-1.457-0.27734-2.5664-0.82812-3.3281-0.55469-0.76953-1.3555-1.1562-2.4062-1.1562-1.0547 0-1.8594 0.38672-2.4219 1.1562-0.55469 0.77344-0.82812 1.8828-0.82812 3.3281 0 1.4492 0.27344 2.5586 0.82812 3.3281 0.5625 0.77344 1.3672 1.1562 2.4219 1.1562zm-3.25-9.9219c0.67578-0.88281 1.4219-1.5391 2.2344-1.9688 0.82031-0.42578 1.7656-0.64062 2.8281-0.64062 1.8945 0 3.4453 0.75 4.6562 2.25 1.207 1.5 1.8125 3.4336 1.8125 5.7969 0 2.3555-0.60547 4.2812-1.8125 5.7812-1.2109 1.5-2.7617 2.25-4.6562 2.25-1.0625 0-2.0078-0.21094-2.8281-0.625-0.8125-0.42578-1.5586-1.0859-2.2344-1.9844v2.2188h-4.8906v-21.281h4.8906z"/>
  </symbol>
  <symbol id="e" overflow="visible">
   <path d="m0.34375-15.312h4.8906l4.125 10.391 3.5-10.391h4.8906l-6.4375 16.766c-0.64844 1.6953-1.4023 2.8828-2.2656 3.5625-0.86719 0.6875-2 1.0312-3.4062 1.0312h-2.8438v-3.2188h1.5312c0.83203 0 1.4375-0.13672 1.8125-0.40625 0.38281-0.26172 0.67969-0.73047 0.89062-1.4062l0.14062-0.42188z"/>
  </symbol>
  <symbol id="j" overflow="visible">
   <path d="m14.953-3.7188h-8.2188l-1.3125 3.7188h-5.2812l7.5625-20.406h6.2656l7.5625 20.406h-5.2812zm-6.9062-3.7812h5.5781l-2.7812-8.125z"/>
  </symbol>
  <symbol id="i" overflow="visible">
   <path d="m17.75-9.3281v9.3281h-4.9219v-7.1406c0-1.3203-0.03125-2.2344-0.09375-2.7344s-0.16797-0.86719-0.3125-1.1094c-0.1875-0.3125-0.44922-0.55469-0.78125-0.73438-0.32422-0.17578-0.69531-0.26562-1.1094-0.26562-1.0234 0-1.8242 0.39844-2.4062 1.1875-0.58594 0.78125-0.875 1.8711-0.875 3.2656v7.5312h-4.8906v-15.312h4.8906v2.2344c0.73828-0.88281 1.5195-1.5391 2.3438-1.9688 0.83203-0.42578 1.75-0.64062 2.75-0.64062 1.7695 0 3.1133 0.54688 4.0312 1.6406 0.91406 1.0859 1.375 2.6562 1.375 4.7188z"/>
  </symbol>
  <symbol id="w" overflow="visible">
   <path d="m0.14062-20.406h5.2812l5.4219 15.062 5.4062-15.062h5.2812l-7.5625 20.406h-6.2656z"/>
  </symbol>
  <symbol id="v" overflow="visible">
   <path d="m14.312-14.828v3.7188c-1.043-0.4375-2.0547-0.76562-3.0312-0.98438-0.98047-0.21875-1.9023-0.32812-2.7656-0.32812-0.92969 0-1.6211 0.11719-2.0781 0.34375-0.44922 0.23047-0.67188 0.58984-0.67188 1.0781 0 0.38672 0.17188 0.68359 0.51562 0.89062 0.34375 0.21094 0.95703 0.36719 1.8438 0.46875l0.85938 0.125c2.5078 0.32422 4.1953 0.85156 5.0625 1.5781 0.86328 0.73047 1.2969 1.8711 1.2969 3.4219 0 1.6367-0.60547 2.8672-1.8125 3.6875-1.1992 0.8125-2.9922 1.2188-5.375 1.2188-1.0234 0-2.0742-0.078125-3.1562-0.23438-1.0742-0.15625-2.1797-0.39453-3.3125-0.71875v-3.7188c0.96875 0.48047 1.9609 0.83984 2.9844 1.0781 1.0312 0.23047 2.0781 0.34375 3.1406 0.34375 0.95703 0 1.6758-0.12891 2.1562-0.39062 0.47656-0.26953 0.71875-0.66406 0.71875-1.1875 0-0.4375-0.16797-0.75781-0.5-0.96875-0.33594-0.21875-0.99609-0.38281-1.9844-0.5l-0.85938-0.10938c-2.1797-0.26953-3.7031-0.77344-4.5781-1.5156-0.875-0.73828-1.3125-1.8594-1.3125-3.3594 0-1.625 0.55078-2.8281 1.6562-3.6094 1.1133-0.78906 2.8203-1.1875 5.125-1.1875 0.89453 0 1.8359 0.074219 2.8281 0.21875 1 0.13672 2.082 0.35156 3.25 0.64062z"/>
  </symbol>
  <symbol id="h" overflow="visible">
   <path d="m2.3594-15.312h4.8906v15.312h-4.8906zm0-5.9688h4.8906v4h-4.8906z"/>
  </symbol>
  <symbol id="u" overflow="visible">
   <path d="m2.3594-21.281h4.8906v21.281h-4.8906z"/>
  </symbol>
  <symbol id="t" overflow="visible">
   <path d="m0.42188-15.312h4.8906l3.8281 10.578 3.7969-10.578h4.9062l-6.0312 15.312h-5.375z"/>
  </symbol>
  <symbol id="s" overflow="visible">
   <path d="m12.422-21.281v3.2188h-2.7031c-0.6875 0-1.1719 0.125-1.4531 0.375-0.27344 0.25-0.40625 0.6875-0.40625 1.3125v1.0625h4.1875v3.5h-4.1875v11.812h-4.8906v-11.812h-2.4375v-3.5h2.4375v-1.0625c0-1.6641 0.46094-2.8984 1.3906-3.7031 0.92578-0.80078 2.3672-1.2031 4.3281-1.2031z"/>
  </symbol>
  <symbol id="d" overflow="visible">
   <path d="m9.6406-12.188c-1.0859 0-1.9141 0.39062-2.4844 1.1719-0.57422 0.78125-0.85938 1.9062-0.85938 3.375s0.28516 2.5938 0.85938 3.375c0.57031 0.77344 1.3984 1.1562 2.4844 1.1562 1.0625 0 1.875-0.38281 2.4375-1.1562 0.57031-0.78125 0.85938-1.9062 0.85938-3.375s-0.28906-2.5938-0.85938-3.375c-0.5625-0.78125-1.375-1.1719-2.4375-1.1719zm0-3.5c2.6328 0 4.6914 0.71484 6.1719 2.1406 1.4766 1.418 2.2188 3.3867 2.2188 5.9062 0 2.5117-0.74219 4.4805-2.2188 5.9062-1.4805 1.418-3.5391 2.125-6.1719 2.125-2.6484 0-4.7148-0.70703-6.2031-2.125-1.4922-1.4258-2.2344-3.3945-2.2344-5.9062 0-2.5195 0.74219-4.4883 2.2344-5.9062 1.4883-1.4258 3.5547-2.1406 6.2031-2.1406z"/>
  </symbol>
  <symbol id="r" overflow="visible">
   <path d="m16.547-12.766c0.61328-0.94531 1.3477-1.6719 2.2031-2.1719 0.85156-0.5 1.7891-0.75 2.8125-0.75 1.7578 0 3.0977 0.54688 4.0156 1.6406 0.92578 1.0859 1.3906 2.6562 1.3906 4.7188v9.3281h-4.9219v-7.9844-0.35938c0.007813-0.13281 0.015625-0.32031 0.015625-0.5625 0-1.082-0.16406-1.8633-0.48438-2.3438-0.3125-0.48828-0.82422-0.73438-1.5312-0.73438-0.92969 0-1.6484 0.38672-2.1562 1.1562-0.51172 0.76172-0.77344 1.8672-0.78125 3.3125v7.5156h-4.9219v-7.9844c0-1.6953-0.14844-2.7852-0.4375-3.2656-0.29297-0.48828-0.8125-0.73438-1.5625-0.73438-0.9375 0-1.6641 0.38672-2.1719 1.1562-0.51172 0.76172-0.76562 1.8594-0.76562 3.2969v7.5312h-4.9219v-15.312h4.9219v2.2344c0.60156-0.86328 1.2891-1.5156 2.0625-1.9531 0.78125-0.4375 1.6406-0.65625 2.5781-0.65625 1.0625 0 2 0.25781 2.8125 0.76562 0.8125 0.51172 1.4258 1.2305 1.8438 2.1562z"/>
  </symbol>
  <symbol id="q" overflow="visible">
   <path d="m17.75-9.3281v9.3281h-4.9219v-7.1094c0-1.3438-0.03125-2.2656-0.09375-2.7656s-0.16797-0.86719-0.3125-1.1094c-0.1875-0.3125-0.44922-0.55469-0.78125-0.73438-0.32422-0.17578-0.69531-0.26562-1.1094-0.26562-1.0234 0-1.8242 0.39844-2.4062 1.1875-0.58594 0.78125-0.875 1.8711-0.875 3.2656v7.5312h-4.8906v-21.281h4.8906v8.2031c0.73828-0.88281 1.5195-1.5391 2.3438-1.9688 0.83203-0.42578 1.75-0.64062 2.75-0.64062 1.7695 0 3.1133 0.54688 4.0312 1.6406 0.91406 1.0859 1.375 2.6562 1.375 4.7188z"/>
  </symbol>
  <symbol id="p" overflow="visible">
   <path d="m2.5781-20.406h5.875l7.4219 14v-14h4.9844v20.406h-5.875l-7.4219-14v14h-4.9844z"/>
  </symbol>
  <symbol id="o" overflow="visible">
   <path d="m2.1875-5.9688v-9.3438h4.9219v1.5312c0 0.83594-0.007813 1.875-0.015625 3.125-0.011719 1.25-0.015625 2.0859-0.015625 2.5 0 1.2422 0.03125 2.1328 0.09375 2.6719 0.070313 0.54297 0.17969 0.93359 0.32812 1.1719 0.20703 0.32422 0.47266 0.57422 0.79688 0.75 0.32031 0.16797 0.69141 0.25 1.1094 0.25 1.0195 0 1.8203-0.39062 2.4062-1.1719 0.58203-0.78125 0.875-1.8672 0.875-3.2656v-7.5625h4.8906v15.312h-4.8906v-2.2188c-0.74219 0.89844-1.5234 1.5586-2.3438 1.9844-0.82422 0.41406-1.7344 0.625-2.7344 0.625-1.7617 0-3.1055-0.53906-4.0312-1.625-0.92969-1.082-1.3906-2.6602-1.3906-4.7344z"/>
  </symbol>
  <symbol id="n" overflow="visible">
   <path d="m2.5781-20.406h8.7344c2.5938 0 4.582 0.57812 5.9688 1.7344 1.3945 1.1484 2.0938 2.7891 2.0938 4.9219 0 2.1367-0.69922 3.7812-2.0938 4.9375-1.3867 1.1562-3.375 1.7344-5.9688 1.7344h-3.4844v7.0781h-5.25zm5.25 3.8125v5.7031h2.9219c1.0195 0 1.8047-0.25 2.3594-0.75 0.5625-0.5 0.84375-1.2031 0.84375-2.1094 0-0.91406-0.28125-1.6172-0.84375-2.1094-0.55469-0.48828-1.3398-0.73438-2.3594-0.73438z"/>
  </symbol>
  <symbol id="m" overflow="visible">
   <path d="m2.3594-15.312h4.8906v15.031c0 2.0508-0.49609 3.6172-1.4844 4.7031-0.98047 1.082-2.4062 1.625-4.2812 1.625h-2.4219v-3.2188h0.85938c0.92578 0 1.5625-0.21094 1.9062-0.625 0.35156-0.41797 0.53125-1.2461 0.53125-2.4844zm0-5.9688h4.8906v4h-4.8906z"/>
  </symbol>
  <symbol id="l" overflow="visible">
   <path d="m14.719-14.828v3.9844c-0.65625-0.45703-1.3242-0.79688-2-1.0156-0.66797-0.21875-1.3594-0.32812-2.0781-0.32812-1.3672 0-2.4336 0.40234-3.2031 1.2031-0.76172 0.79297-1.1406 1.9062-1.1406 3.3438 0 1.4297 0.37891 2.543 1.1406 3.3438 0.76953 0.79297 1.8359 1.1875 3.2031 1.1875 0.75781 0 1.4844-0.10938 2.1719-0.32812 0.6875-0.22656 1.3203-0.56641 1.9062-1.0156v4c-0.76172 0.28125-1.5391 0.48828-2.3281 0.625-0.78125 0.14453-1.5742 0.21875-2.375 0.21875-2.7617 0-4.9219-0.70703-6.4844-2.125-1.5547-1.4141-2.3281-3.3828-2.3281-5.9062 0-2.5312 0.77344-4.5039 2.3281-5.9219 1.5625-1.4141 3.7227-2.125 6.4844-2.125 0.80078 0 1.5938 0.074219 2.375 0.21875 0.78125 0.13672 1.5547 0.35156 2.3281 0.64062z"/>
  </symbol>
 </defs>
 <g>
  <path d="m324.57 94.121h29.871c1.4102 0 2.5703-1.1602 2.5703-2.5703 0-1.418-1.1602-2.5742-2.5703-2.5742h-29.871c-1.4219 0-2.5703 1.1602-2.5703 2.5742 0 1.4141 1.1484 2.5703 2.5703 2.5703z"/>
  <path d="m311.55 91.543c0 3.2695-4.9023 3.2695-4.9023 0s4.9023-3.2695 4.9023 0"/>
  <path d="m335.44 314.38c0 4.4453-3.6055 8.0469-8.0469 8.0469-4.4453 0-8.0508-3.6016-8.0508-8.0469 0-4.4414 3.6055-8.0469 8.0508-8.0469 4.4414 0 8.0469 3.6055 8.0469 8.0469"/>
  <path d="m613.33 449.73-37.648-53.465c3.3984-94.219-33.48-132.19-41.363-139.2l-36.062-59.227c-6.6211-11.09-22.539-13.809-35.539-6.0469-3.125 1.875-5.8398 4.2227-8.0625 6.8984-5.5156-6.8164-15.062-9.5156-24.574-7.4102 3.0312-8.7734 3.332-16.504 0.8125-23.066-4.2656-11.078-14.438-14-15.379-14.246-6.5977-1.8828-12.438-0.73828-17.305 1.7695l0.003907-67.719c0-12.117-9.8555-21.98-21.984-21.98h-97.664c-12.129 0-21.992 9.8633-21.992 21.98v59.891c-21.875-3.375-35.973 27.809-37.574 31.562-15.59 36.391-27.352 91.684-16.336 127.12 10.289 33.039 1.9883 49.605 1.1484 51.168l-4.7383 6.1875-3.0703-1.7812c-3.5625-2.0625-8.0703-1.3945-10.898 1.5977l-103.2 109.53c-2.4258 2.582-3.0781 6.3516-1.6797 9.5977 1.3984 3.2539 4.5977 5.3555 8.1367 5.3555h177.04c2.9727 0 5.7383-1.4883 7.3867-3.9609l32.027-48.203c1.0547-1.5781 1.5391-3.4609 1.4492-5.3242 19.516-7.0039 41.738-22.242 66.328-45.504 30.211 34.66 75.75 64.887 89.98 73.938v25.891c0 4.8984 3.9688 8.8633 8.8633 8.8633 4.8984 0 8.8633-3.9648 8.8633-8.8633v-30.801c0-3.0977-1.6055-5.9688-4.2578-7.582-30.121-18.34-109.29-74.91-113.75-115.77-0.80469-7.3594 1.0234-13.809 5.4727-19.582l17.305 29.34c1.6562 2.8125 4.6016 4.3633 7.6445 4.3633 1.5234 0 3.0781-0.39062 4.4961-1.2383 4.2109-2.4805 5.6055-7.9141 3.1289-12.129l-79.496-134.85c-0.57031-0.95312-0.44141-2.1602-0.23438-3 0.64453-2.5586 2.7344-5.1055 5.5898-6.8203 4.7539-2.832 9.8398-2.3789 11.312 0.078126l21.504 34.367c0.49219 1.6367 1.1914 3.2031 2.0938 4.6914l50.152 78.82c0.039063 0.0625 0.09375 0.09375 0.12891 0.14453 0.34766 0.53125 0.76563 1.0039 1.2031 1.4453 0.15234 0.14062 0.33203 0.28516 0.49219 0.42187 0.35938 0.3125 0.73828 0.57813 1.1484 0.81641 0.18359 0.11719 0.37109 0.23047 0.58203 0.33203 0.46484 0.23438 0.94141 0.41406 1.4492 0.56641 0.13281 0.042969 0.26953 0.10156 0.41016 0.13281 0.63281 0.15234 1.2812 0.23047 1.9375 0.24219 0.054687 0 0.09375 0.015625 0.14453 0.015625 0.10547 0 0.22266-0.039062 0.32422-0.039062 0.58203-0.035157 1.1719-0.11328 1.7461-0.25781 0.20313-0.042968 0.39844-0.089844 0.58203-0.14453 0.70703-0.23438 1.3828-0.50391 2.0312-0.90625 0.011718-0.011719 0.023437-0.011719 0.023437-0.023437 0.015625 0 0.027344 0 0.027344-0.011719 0.25391-0.16406 0.46875-0.37109 0.71094-0.55859 0.21875-0.17188 0.48047-0.33984 0.67578-0.53125 0.21875-0.22266 0.40234-0.47656 0.60938-0.70703 0.17188-0.21094 0.35938-0.39844 0.51562-0.61719 0.17969-0.25781 0.32422-0.54688 0.46094-0.81641 0.12891-0.21875 0.27344-0.44922 0.37891-0.67578 0.11719-0.28516 0.20312-0.58984 0.29687-0.88672 0.078126-0.24609 0.17969-0.47656 0.24219-0.73438 0.074219-0.3125 0.085938-0.62891 0.11719-0.94141 0.035156-0.25391 0.089843-0.48828 0.089843-0.73828 0.011719-0.33594-0.035156-0.67188-0.054687-1.0039-0.023438-0.24219-0.011719-0.46875-0.054688-0.70703-0.054687-0.34766-0.15625-0.67578-0.26172-1.0117-0.066407-0.21875-0.10156-0.45312-0.18359-0.67578-0.11719-0.30859-0.29688-0.59766-0.4375-0.90234-0.12891-0.22266-0.20703-0.46094-0.33984-0.68359l-0.035156-0.050781v-0.011719l-50.449-80.617c0.0625-0.72656 0.25781-1.4219 0.44141-1.8945 0.86719-2.2773 2.8047-4.4531 5.3047-5.9453 2.5273-1.5117 5.3359-2.1953 7.7617-1.875 0.95703 0.11719 2.6836 0.51562 3.5898 2.0156l50.176 78.812c0.62891 0.98438 1.4336 1.7969 2.3281 2.4414l0.80078 1.3164c1.6797 2.7383 4.5938 4.2617 7.582 4.2617 1.5742 0 3.1641-0.42188 4.6016-1.3008 4.1758-2.5352 5.5117-7.9961 2.9609-12.168l-36.805-60.484c-0.57031-0.95312-0.4375-2.1602-0.21875-3.0078 0.63281-2.5586 2.7109-5.1133 5.5781-6.8203 4.75-2.8281 9.832-2.3789 11.246-0.015626l36.836 60.512c0.49219 0.80469 1.1133 1.4688 1.793 2.0508l8.3828 13.789c2.543 4.1758 8.0039 5.5039 12.18 2.9609 4.1875-2.5469 5.5039-7.9961 2.9609-12.18l-36.805-60.48c-0.76563-1.2812-0.29688-2.9844 0.054687-3.8789 0.85547-2.2773 2.8008-4.4531 5.3047-5.9453 4.7422-2.8281 9.8398-2.375 11.246-0.015626l36.836 60.52c0.57812 0.91797 1.3008 1.7344 2.1562 2.3984 0.39062 0.30859 40.098 32.199 35.789 128.63-0.09375 1.9648 0.48047 3.8906 1.6016 5.4883l39.375 55.914c1.7344 2.4531 4.4688 3.7578 7.2695 3.7578 1.7461 0 3.5391-0.52734 5.0859-1.6133 4.0156-2.8125 4.9727-8.3438 2.1484-12.344zm-212.98-272.21c0.042969-0.078125 4.8086-8.0703 10.293-6.5 0.28125 0.09375 2.8008 0.97266 3.7734 3.7422 0.80078 2.25 1.5859 8.7852-6.8164 22.539-2.2383-3.4766-5.4883-6.1875-9.3867-7.9023v-9.375c0.84766-0.67969 1.582-1.5078 2.1367-2.5039zm-121.78-93.75h97.664c2.3477 0 4.2617 1.9023 4.2617 4.25v9.6719h-106.19v-9.6719c0-2.3477 1.9102-4.25 4.2617-4.25zm65.84 242.86h-65.84c-2.3477 0-4.2578-1.8984-4.2578-4.25v-19.941h77.957c-5.0898 7.2812-7.707 15.371-7.8594 24.191zm-83.762 143.89h-151.77l84.316-89.488 3.7305 2.168 12.801 7.4219 75.102 43.512zm29.684-53.691-75.793-43.918 3.625-4.7383c0.12891-0.15625 0.24219-0.32422 0.34766-0.48828 1.5195-2.2891 14.402-23.535 1.082-66.359-9.2578-29.766 0.89062-80.316 15.691-114.87 4.0469-9.3516 12.859-21.723 18.781-20.996 1.2305 1.5352 6.8945 11.039-4.3438 46.078-0.46875 1.4688-0.54688 3.0469-0.23047 4.5586l6.4688 30.27c0.14453 0.63281 0.35156 1.25 0.60938 1.8203v74.195c0 12.125 9.8633 21.98 21.992 21.98h68.699c2.9102 8.9492 7.9062 18.02 14.273 26.945-27.738 26.438-52.25 42.121-71.203 45.52zm82.082-225.03c-2.7656 1.6641-5.2266 3.707-7.2969 6.0195l-12.488-19.969c-6.6289-11.078-22.562-13.793-35.539-6.043-6.9141 4.1445-11.898 10.613-13.688 17.734-1.4453 5.7969-0.64844 11.625 2.1992 16.375l46.465 78.805h-77.758v-169.3h106.18v72.953c-2.7812 0.75-5.4922 1.8828-8.0742 3.4219z"/>
  <use x="70" y="644" xlink:href="#x"/>
  <use x="90.550781" y="644" xlink:href="#b"/>
  <use x="104.359375" y="644" xlink:href="#a"/>
  <use x="123.347656" y="644" xlink:href="#g"/>
  <use x="142.242188" y="644" xlink:href="#c"/>
  <use x="155.628906" y="644" xlink:href="#a"/>
  <use x="174.617188" y="644" xlink:href="#f"/>
  <use x="204.410156" y="644" xlink:href="#k"/>
  <use x="224.453125" y="644" xlink:href="#e"/>
  <use x="252.453125" y="644" xlink:href="#j"/>
  <use x="274.121094" y="644" xlink:href="#i"/>
  <use x="294.054688" y="644" xlink:href="#f"/>
  <use x="314.097656" y="644" xlink:href="#b"/>
  <use x="327.90625" y="644" xlink:href="#a"/>
  <use x="346.898438" y="644" xlink:href="#e"/>
  <use x="374.898438" y="644" xlink:href="#w"/>
  <use x="396.566406" y="644" xlink:href="#g"/>
  <use x="415.460938" y="644" xlink:href="#v"/>
  <use x="432.125" y="644" xlink:href="#h"/>
  <use x="441.726562" y="644" xlink:href="#u"/>
  <use x="451.320312" y="644" xlink:href="#h"/>
  <use x="460.921875" y="644" xlink:href="#a"/>
  <use x="479.910156" y="644" xlink:href="#t"/>
  <use x="70" y="672" xlink:href="#s"/>
  <use x="82.183594" y="672" xlink:href="#b"/>
  <use x="95.992188" y="672" xlink:href="#d"/>
  <use x="115.226562" y="672" xlink:href="#r"/>
  <use x="154.152344" y="672" xlink:href="#c"/>
  <use x="167.535156" y="672" xlink:href="#q"/>
  <use x="187.46875" y="672" xlink:href="#a"/>
  <use x="216.207031" y="672" xlink:href="#p"/>
  <use x="239.640625" y="672" xlink:href="#d"/>
  <use x="258.878906" y="672" xlink:href="#o"/>
  <use x="278.8125" y="672" xlink:href="#i"/>
  <use x="308.492188" y="672" xlink:href="#n"/>
  <use x="329.015625" y="672" xlink:href="#b"/>
  <use x="342.820312" y="672" xlink:href="#d"/>
  <use x="362.058594" y="672" xlink:href="#m"/>
  <use x="371.65625" y="672" xlink:href="#a"/>
  <use x="390.648438" y="672" xlink:href="#l"/>
  <use x="407.242188" y="672" xlink:href="#c"/>
 </g>
</svg>
